<svg viewBox="0 0 150.51 187.14" xmlns="http://www.w3.org/2000/svg">
    <defs>
        <filter id="b" x="-.087" y="-.242" width="1.174" height="1.484" color-interpolation-filters="sRGB">
            <feGaussianBlur stdDeviation="4.957"/>
        </filter>
        <filter id="a" color-interpolation-filters="sRGB">
            <feGaussianBlur stdDeviation="12.237"/>
        </filter>
        <linearGradient id="c" x1="516.44" x2="515.66" y1="727.92" y2="476.36" gradientUnits="userSpaceOnUse">
            <stop stop-opacity=".469" offset="0"/>
        </linearGradient>
    </defs>
    <g transform="translate(-131.67 -87.202) scale(.41341)">
        <rect x="347.86" y="240.3" width="305.33" height="393.93" ry="23.51" fill-rule="evenodd" filter="url(#a)"/>
        <rect x="646.8" y="271.83" width="13.322" height="83.069" ry="4.702" fill="olive" fill-rule="evenodd"/>
        <path d="M646.8 354.36v41.937c0 1.515 2.083 2.745 4.688 2.745h3.906c2.605 0 4.718-1.23 4.718-2.745V354.36c0 1.515-2.113 2.727-4.718 2.727h-3.907c-2.604 0-4.687-1.212-4.687-2.727z" fill="maroon" fill-rule="evenodd"/>
        <path d="M646.8 398.52v41.937c0 1.515 2.083 2.745 4.688 2.745h3.906c2.605 0 4.718-1.23 4.718-2.745V398.52c0 1.515-2.113 2.727-4.718 2.727h-3.907c-2.604 0-4.687-1.212-4.687-2.727z" fill="green" fill-rule="evenodd"/>
        <path d="M646.8 442.67v31.64c0 1.143 2.083 2.07 4.688 2.07h3.906c2.605 0 4.718-.927 4.718-2.07v-31.64c0 1.143-2.113 2.057-4.718 2.057h-3.907c-2.604 0-4.687-.914-4.687-2.057z" fill="purple" fill-rule="evenodd"/>
        <rect x="347.86" y="240.3" width="305.33" height="393.93" ry="23.51" fill="#520" fill-rule="evenodd"/>
        <path d="M369.167 278.188a5.486 5.486 0 1 1-10.972 0 5.486 5.486 0 0 1 10.972 0z" fill="#fff" fill-rule="evenodd"/>
        <path transform="matrix(.03348 .19292 -.39889 .01619 462.023 247.54)" d="M234.72 306.72c-19.003 25.071-53.536 29.028-77.132 8.838-16.274-13.925-23.69-36.464-19.125-58.13" fill="none" stroke="#999" stroke-linecap="round" stroke-width="25.146"/>
        <path transform="matrix(.03348 .19292 -.39889 .01619 462.023 247.54)" d="M234.72 306.72c-19.003 25.071-53.536 29.028-77.132 8.838-16.274-13.925-23.69-36.464-19.125-58.13" fill="none" filter="url(#b)" stroke="#fff" stroke-linecap="round" stroke-width="10.777"/>
        <path d="M369.167 298.146a5.486 5.486 0 1 1-10.972 0 5.486 5.486 0 0 1 10.972 0z" fill="#fff" fill-rule="evenodd"/>
        <path transform="matrix(.03348 .19292 -.39889 .01619 462.023 267.497)" d="M234.72 306.72c-19.003 25.071-53.536 29.028-77.132 8.838-16.274-13.925-23.69-36.464-19.125-58.13" fill="none" stroke="#999" stroke-linecap="round" stroke-width="25.146"/>
        <path transform="matrix(.03348 .19292 -.39889 .01619 462.023 267.497)" d="M234.72 306.72c-19.003 25.071-53.536 29.028-77.132 8.838-16.274-13.925-23.69-36.464-19.125-58.13" fill="none" filter="url(#b)" stroke="#fff" stroke-linecap="round" stroke-width="10.777"/>
        <path d="M369.167 318.104a5.486 5.486 0 1 1-10.972 0 5.486 5.486 0 0 1 10.972 0z" fill="#fff" fill-rule="evenodd"/>
        <path transform="matrix(.03348 .19292 -.39889 .01619 462.023 287.455)" d="M234.72 306.72c-19.003 25.071-53.536 29.028-77.132 8.838-16.274-13.925-23.69-36.464-19.125-58.13" fill="none" stroke="#999" stroke-linecap="round" stroke-width="25.146"/>
        <path transform="matrix(.03348 .19292 -.39889 .01619 462.023 287.455)" d="M234.72 306.72c-19.003 25.071-53.536 29.028-77.132 8.838-16.274-13.925-23.69-36.464-19.125-58.13" fill="none" filter="url(#b)" stroke="#fff" stroke-linecap="round" stroke-width="10.777"/>
        <path d="M369.167 338.06a5.486 5.486 0 1 1-10.972 0 5.486 5.486 0 0 1 10.972 0z" fill="#fff" fill-rule="evenodd"/>
        <path transform="matrix(.03348 .19292 -.39889 .01619 462.023 307.412)" d="M234.72 306.72c-19.003 25.071-53.536 29.028-77.132 8.838-16.274-13.925-23.69-36.464-19.125-58.13" fill="none" stroke="#999" stroke-linecap="round" stroke-width="25.146"/>
        <path transform="matrix(.03348 .19292 -.39889 .01619 462.023 307.412)" d="M234.72 306.72c-19.003 25.071-53.536 29.028-77.132 8.838-16.274-13.925-23.69-36.464-19.125-58.13" fill="none" filter="url(#b)" stroke="#fff" stroke-linecap="round" stroke-width="10.777"/>
        <path d="M369.167 358.019a5.486 5.486 0 1 1-10.972 0 5.486 5.486 0 0 1 10.972 0z" fill="#fff" fill-rule="evenodd"/>
        <path transform="matrix(.03348 .19292 -.39889 .01619 462.023 327.37)" d="M234.72 306.72c-19.003 25.071-53.536 29.028-77.132 8.838-16.274-13.925-23.69-36.464-19.125-58.13" fill="none" stroke="#999" stroke-linecap="round" stroke-width="25.146"/>
        <path transform="matrix(.03348 .19292 -.39889 .01619 462.023 327.37)" d="M234.72 306.72c-19.003 25.071-53.536 29.028-77.132 8.838-16.274-13.925-23.69-36.464-19.125-58.13" fill="none" filter="url(#b)" stroke="#fff" stroke-linecap="round" stroke-width="10.777"/>
        <path d="M369.167 377.976a5.486 5.486 0 1 1-10.972 0 5.486 5.486 0 0 1 10.972 0z" fill="#fff" fill-rule="evenodd"/>
        <path transform="matrix(.03348 .19292 -.39889 .01619 462.023 347.327)" d="M234.72 306.72c-19.003 25.071-53.536 29.028-77.132 8.838-16.274-13.925-23.69-36.464-19.125-58.13" fill="none" stroke="#999" stroke-linecap="round" stroke-width="25.146"/>
        <path transform="matrix(.03348 .19292 -.39889 .01619 462.023 347.327)" d="M234.72 306.72c-19.003 25.071-53.536 29.028-77.132 8.838-16.274-13.925-23.69-36.464-19.125-58.13" fill="none" filter="url(#b)" stroke="#fff" stroke-linecap="round" stroke-width="10.777"/>
        <g>
            <path d="M369.167 397.929a5.486 5.486 0 1 1-10.972 0 5.486 5.486 0 0 1 10.972 0z" fill="#fff" fill-rule="evenodd"/>
            <path transform="matrix(.03348 .19292 -.39889 .01619 462.023 367.28)" d="M234.72 306.72c-19.003 25.071-53.536 29.028-77.132 8.838-16.274-13.925-23.69-36.464-19.125-58.13" fill="none" stroke="#999" stroke-linecap="round" stroke-width="25.146"/>
            <path transform="matrix(.03348 .19292 -.39889 .01619 462.023 367.28)" d="M234.72 306.72c-19.003 25.071-53.536 29.028-77.132 8.838-16.274-13.925-23.69-36.464-19.125-58.13" fill="none" filter="url(#b)" stroke="#fff" stroke-linecap="round" stroke-width="10.777"/>
        </g>
        <g>
            <path d="M369.167 417.889a5.486 5.486 0 1 1-10.972 0 5.486 5.486 0 0 1 10.972 0z" fill="#fff" fill-rule="evenodd"/>
            <path transform="matrix(.03348 .19292 -.39889 .01619 462.023 387.24)" d="M234.72 306.72c-19.003 25.071-53.536 29.028-77.132 8.838-16.274-13.925-23.69-36.464-19.125-58.13" fill="none" stroke="#999" stroke-linecap="round" stroke-width="25.146"/>
            <path transform="matrix(.03348 .19292 -.39889 .01619 462.023 387.24)" d="M234.72 306.72c-19.003 25.071-53.536 29.028-77.132 8.838-16.274-13.925-23.69-36.464-19.125-58.13" fill="none" filter="url(#b)" stroke="#fff" stroke-linecap="round" stroke-width="10.777"/>
        </g>
        <g>
            <path d="M369.167 437.849a5.486 5.486 0 1 1-10.972 0 5.486 5.486 0 0 1 10.972 0z" fill="#fff" fill-rule="evenodd"/>
            <path transform="matrix(.03348 .19292 -.39889 .01619 462.023 407.2)" d="M234.72 306.72c-19.003 25.071-53.536 29.028-77.132 8.838-16.274-13.925-23.69-36.464-19.125-58.13" fill="none" stroke="#999" stroke-linecap="round" stroke-width="25.146"/>
            <path transform="matrix(.03348 .19292 -.39889 .01619 462.023 407.2)" d="M234.72 306.72c-19.003 25.071-53.536 29.028-77.132 8.838-16.274-13.925-23.69-36.464-19.125-58.13" fill="none" filter="url(#b)" stroke="#fff" stroke-linecap="round" stroke-width="10.777"/>
        </g>
        <g>
            <path d="M369.167 457.809a5.486 5.486 0 1 1-10.972 0 5.486 5.486 0 0 1 10.972 0z" fill="#fff" fill-rule="evenodd"/>
            <path transform="matrix(.03348 .19292 -.39889 .01619 462.023 427.16)" d="M234.72 306.72c-19.003 25.071-53.536 29.028-77.132 8.838-16.274-13.925-23.69-36.464-19.125-58.13" fill="none" stroke="#999" stroke-linecap="round" stroke-width="25.146"/>
            <path transform="matrix(.03348 .19292 -.39889 .01619 462.023 427.16)" d="M234.72 306.72c-19.003 25.071-53.536 29.028-77.132 8.838-16.274-13.925-23.69-36.464-19.125-58.13" fill="none" filter="url(#b)" stroke="#fff" stroke-linecap="round" stroke-width="10.777"/>
        </g>
        <g>
            <path d="M369.167 477.769a5.486 5.486 0 1 1-10.972 0 5.486 5.486 0 0 1 10.972 0z" fill="#fff" fill-rule="evenodd"/>
            <path transform="matrix(.03348 .19292 -.39889 .01619 462.023 447.12)" d="M234.72 306.72c-19.003 25.071-53.536 29.028-77.132 8.838-16.274-13.925-23.69-36.464-19.125-58.13" fill="none" stroke="#999" stroke-linecap="round" stroke-width="25.146"/>
            <path transform="matrix(.03348 .19292 -.39889 .01619 462.023 447.12)" d="M234.72 306.72c-19.003 25.071-53.536 29.028-77.132 8.838-16.274-13.925-23.69-36.464-19.125-58.13" fill="none" filter="url(#b)" stroke="#fff" stroke-linecap="round" stroke-width="10.777"/>
        </g>
        <g>
            <path d="M369.167 497.719a5.486 5.486 0 1 1-10.972 0 5.486 5.486 0 0 1 10.972 0z" fill="#fff" fill-rule="evenodd"/>
            <path transform="matrix(.03348 .19292 -.39889 .01619 462.023 467.07)" d="M234.72 306.72c-19.003 25.071-53.536 29.028-77.132 8.838-16.274-13.925-23.69-36.464-19.125-58.13" fill="none" stroke="#999" stroke-linecap="round" stroke-width="25.146"/>
            <path transform="matrix(.03348 .19292 -.39889 .01619 462.023 467.07)" d="M234.72 306.72c-19.003 25.071-53.536 29.028-77.132 8.838-16.274-13.925-23.69-36.464-19.125-58.13" fill="none" filter="url(#b)" stroke="#fff" stroke-linecap="round" stroke-width="10.777"/>
        </g>
        <g>
            <path d="M369.167 517.679a5.486 5.486 0 1 1-10.972 0 5.486 5.486 0 0 1 10.972 0z" fill="#fff" fill-rule="evenodd"/>
            <path transform="matrix(.03348 .19292 -.39889 .01619 462.023 487.03)" d="M234.72 306.72c-19.003 25.071-53.536 29.028-77.132 8.838-16.274-13.925-23.69-36.464-19.125-58.13" fill="none" stroke="#999" stroke-linecap="round" stroke-width="25.146"/>
            <path transform="matrix(.03348 .19292 -.39889 .01619 462.023 487.03)" d="M234.72 306.72c-19.003 25.071-53.536 29.028-77.132 8.838-16.274-13.925-23.69-36.464-19.125-58.13" fill="none" filter="url(#b)" stroke="#fff" stroke-linecap="round" stroke-width="10.777"/>
        </g>
        <g>
            <path d="M369.167 537.639a5.486 5.486 0 1 1-10.972 0 5.486 5.486 0 0 1 10.972 0z" fill="#fff" fill-rule="evenodd"/>
            <path transform="matrix(.03348 .19292 -.39889 .01619 462.023 506.99)" d="M234.72 306.72c-19.003 25.071-53.536 29.028-77.132 8.838-16.274-13.925-23.69-36.464-19.125-58.13" fill="none" stroke="#999" stroke-linecap="round" stroke-width="25.146"/>
            <path transform="matrix(.03348 .19292 -.39889 .01619 462.023 506.99)" d="M234.72 306.72c-19.003 25.071-53.536 29.028-77.132 8.838-16.274-13.925-23.69-36.464-19.125-58.13" fill="none" filter="url(#b)" stroke="#fff" stroke-linecap="round" stroke-width="10.777"/>
        </g>
        <g>
            <path d="M369.167 557.599a5.486 5.486 0 1 1-10.972 0 5.486 5.486 0 0 1 10.972 0z" fill="#fff" fill-rule="evenodd"/>
            <path transform="matrix(.03348 .19292 -.39889 .01619 462.023 526.95)" d="M234.72 306.72c-19.003 25.071-53.536 29.028-77.132 8.838-16.274-13.925-23.69-36.464-19.125-58.13" fill="none" stroke="#999" stroke-linecap="round" stroke-width="25.146"/>
            <path transform="matrix(.03348 .19292 -.39889 .01619 462.023 526.95)" d="M234.72 306.72c-19.003 25.071-53.536 29.028-77.132 8.838-16.274-13.925-23.69-36.464-19.125-58.13" fill="none" filter="url(#b)" stroke="#fff" stroke-linecap="round" stroke-width="10.777"/>
        </g>
        <g>
            <path d="M367.166 577.549a5.486 5.486 0 1 1-10.971 0 5.486 5.486 0 0 1 10.971 0z" fill="#fff" fill-rule="evenodd"/>
            <path transform="matrix(.03348 .19292 -.39889 .01619 460.023 546.9)" d="M234.72 306.72c-19.003 25.071-53.536 29.028-77.132 8.838-16.274-13.925-23.69-36.464-19.125-58.13" fill="none" stroke="#999" stroke-linecap="round" stroke-width="25.146"/>
            <path transform="matrix(.03348 .19292 -.39889 .01619 460.023 546.9)" d="M234.72 306.72c-19.003 25.071-53.536 29.028-77.132 8.838-16.274-13.925-23.69-36.464-19.125-58.13" fill="none" filter="url(#b)" stroke="#fff" stroke-linecap="round" stroke-width="10.777"/>
        </g>
        <path d="M379.26 262.87h233.11c11.754 0 21.217 9.113 21.217 20.433v301.5c0 11.32-9.463 20.433-21.217 20.433H379.26z" fill="#803300" fill-rule="evenodd"/>
        <rect x="416.13" y="307.09" width="171.87" height="79.37" ry="11.068" fill="none" opacity=".423" stroke="#2b1100" stroke-linecap="round" stroke-linejoin="round" stroke-width="2.89"/>
        <g fill="#fff" opacity=".235" transform="scale(1 -1)">
            <rect x="472.89" y="-331.38" width="106.69" height="1.567" ry=".784"/>
            <rect x="472.55" y="-345.88" width="107.36" height="1.567" ry=".784"/>
            <rect x="472.89" y="-360.38" width="106.69" height="1.567" ry=".784"/>
        </g>
        <rect x="427.32" y="323.77" width="37.518" height="42.597" ry="0" fill="#ccc" opacity=".042" stroke="#2b1100" stroke-linecap="round" stroke-linejoin="round" stroke-width=".989"/>
        <rect x="347.86" y="240.3" width="305.33" height="393.93" ry="23.51" fill="url(#c)" fill-rule="evenodd"/>
        <rect x="347.86" y="240.3" width="305.33" height="393.93" ry="23.51" fill="#fff" fill-rule="evenodd" opacity=".047"/>
    </g>
</svg>
